<?xml version="1.0" encoding="us-ascii" standalone="no"?><svg xmlns="http://www.w3.org/2000/svg" xmlns:xlink="http://www.w3.org/1999/xlink" contentStyleType="text/css" height="1650px" preserveAspectRatio="none" style="width:864px;height:1650px;background:#FFFFFF;" version="1.1" viewBox="0 0 864 1650" width="864px" zoomAndPan="magnify"><defs/><g><text fill="#000000" font-family="sans-serif" font-size="14" font-weight="bold" lengthAdjust="spacing" textLength="129.9375" x="366.0313" y="29.5332">&#25509;&#25910;&#26381;&#21153;&#22120;&#28040;&#24687;&#27969;&#31243;</text><rect fill="none" height="1278.7578" style="stroke:#000000;stroke-width:1.5;" width="825" x="10" y="287.3281"/><line style="stroke:#181818;stroke-width:0.5;stroke-dasharray:5.0,5.0;" x1="81" x2="81" y1="76.2188" y2="1613.4375"/><line style="stroke:#181818;stroke-width:0.5;stroke-dasharray:5.0,5.0;" x1="271" x2="271" y1="76.2188" y2="1613.4375"/><line style="stroke:#181818;stroke-width:0.5;stroke-dasharray:5.0,5.0;" x1="456.5" x2="456.5" y1="76.2188" y2="1613.4375"/><line style="stroke:#181818;stroke-width:0.5;stroke-dasharray:5.0,5.0;" x1="630.5" x2="630.5" y1="76.2188" y2="1613.4375"/><line style="stroke:#181818;stroke-width:0.5;stroke-dasharray:5.0,5.0;" x1="830" x2="830" y1="76.2188" y2="1613.4375"/><rect fill="#E3E3E3" height="31.6094" rx="2.5" ry="2.5" style="stroke:#181818;stroke-width:0.5;" width="122" x="20" y="43.6094"/><text fill="#000000" font-family="sans-serif" font-size="14" lengthAdjust="spacing" textLength="108" x="27" y="65.1426">WebSocketClient</text><rect fill="#E3E3E3" height="31.6094" rx="2.5" ry="2.5" style="stroke:#181818;stroke-width:0.5;" width="122" x="20" y="1612.4375"/><text fill="#000000" font-family="sans-serif" font-size="14" lengthAdjust="spacing" textLength="108" x="27" y="1633.9707">WebSocketClient</text><rect fill="#E3E3E3" height="31.6094" rx="2.5" ry="2.5" style="stroke:#181818;stroke-width:0.5;" width="70" x="236" y="43.6094"/><text fill="#000000" font-family="sans-serif" font-size="14" lengthAdjust="spacing" textLength="56" x="243" y="65.1426">Main.qml</text><rect fill="#E3E3E3" height="31.6094" rx="2.5" ry="2.5" style="stroke:#181818;stroke-width:0.5;" width="70" x="236" y="1612.4375"/><text fill="#000000" font-family="sans-serif" font-size="14" lengthAdjust="spacing" textLength="56" x="243" y="1633.9707">Main.qml</text><rect fill="#E3E3E3" height="31.6094" rx="2.5" ry="2.5" style="stroke:#181818;stroke-width:0.5;" width="107" x="403.5" y="43.6094"/><text fill="#000000" font-family="sans-serif" font-size="14" lengthAdjust="spacing" textLength="93" x="410.5" y="65.1426">JsonProcessor</text><rect fill="#E3E3E3" height="31.6094" rx="2.5" ry="2.5" style="stroke:#181818;stroke-width:0.5;" width="107" x="403.5" y="1612.4375"/><text fill="#000000" font-family="sans-serif" font-size="14" lengthAdjust="spacing" textLength="93" x="410.5" y="1633.9707">JsonProcessor</text><rect fill="#E3E3E3" height="31.6094" rx="2.5" ry="2.5" style="stroke:#181818;stroke-width:0.5;" width="131" x="565.5" y="43.6094"/><text fill="#000000" font-family="sans-serif" font-size="14" lengthAdjust="spacing" textLength="117" x="572.5" y="65.1426">DatabaseManager</text><rect fill="#E3E3E3" height="31.6094" rx="2.5" ry="2.5" style="stroke:#181818;stroke-width:0.5;" width="131" x="565.5" y="1612.4375"/><text fill="#000000" font-family="sans-serif" font-size="14" lengthAdjust="spacing" textLength="117" x="572.5" y="1633.9707">DatabaseManager</text><rect fill="#E3E3E3" height="31.6094" rx="2.5" ry="2.5" style="stroke:#181818;stroke-width:0.5;" width="56" x="802" y="43.6094"/><text fill="#000000" font-family="sans-serif" font-size="14" lengthAdjust="spacing" textLength="42" x="809" y="65.1426">&#26381;&#21153;&#22120;</text><rect fill="#E3E3E3" height="31.6094" rx="2.5" ry="2.5" style="stroke:#181818;stroke-width:0.5;" width="56" x="802" y="1612.4375"/><text fill="#000000" font-family="sans-serif" font-size="14" lengthAdjust="spacing" textLength="42" x="809" y="1633.9707">&#26381;&#21153;&#22120;</text><polygon fill="#181818" points="92,104.5703,82,108.5703,92,112.5703,88,108.5703" style="stroke:#181818;stroke-width:1.0;"/><line style="stroke:#181818;stroke-width:1.0;stroke-dasharray:2.0,2.0;" x1="86" x2="829" y1="108.5703" y2="108.5703"/><text fill="#000000" font-family="sans-serif" font-size="13" lengthAdjust="spacing" textLength="26" x="98" y="103.7139">&#21457;&#36865;</text><text fill="#000000" font-family="sans-serif" font-size="13" lengthAdjust="spacing" textLength="4" x="124" y="103.7139">&#160;</text><text fill="#000000" font-family="sans-serif" font-size="13" lengthAdjust="spacing" textLength="34" x="128" y="103.7139">JSON</text><text fill="#000000" font-family="sans-serif" font-size="13" lengthAdjust="spacing" textLength="4" x="162" y="103.7139">&#160;</text><text fill="#000000" font-family="sans-serif" font-size="13" lengthAdjust="spacing" textLength="26" x="166" y="103.7139">&#28040;&#24687;</text><line style="stroke:#181818;stroke-width:1.0;" x1="81" x2="123" y1="138.9219" y2="138.9219"/><line style="stroke:#181818;stroke-width:1.0;" x1="123" x2="123" y1="138.9219" y2="151.9219"/><line style="stroke:#181818;stroke-width:1.0;" x1="82" x2="123" y1="151.9219" y2="151.9219"/><polygon fill="#181818" points="92,147.9219,82,151.9219,92,155.9219,88,151.9219" style="stroke:#181818;stroke-width:1.0;"/><text fill="#000000" font-family="sans-serif" font-size="13" lengthAdjust="spacing" textLength="176" x="88" y="134.0654">onTextMessageReceived(json)</text><polygon fill="#181818" points="259,194.625,269,198.625,259,202.625,263,198.625" style="stroke:#181818;stroke-width:1.0;"/><line style="stroke:#181818;stroke-width:1.0;" x1="81" x2="265" y1="198.625" y2="198.625"/><text fill="#000000" font-family="sans-serif" font-size="13" lengthAdjust="spacing" textLength="25" x="88" y="177.417">emit</text><text fill="#000000" font-family="sans-serif" font-size="13" lengthAdjust="spacing" textLength="137" x="88" y="193.7686">messageReceived(json)</text><polygon fill="#181818" points="445,224.9766,455,228.9766,445,232.9766,449,228.9766" style="stroke:#181818;stroke-width:1.0;"/><line style="stroke:#181818;stroke-width:1.0;" x1="271" x2="451" y1="228.9766" y2="228.9766"/><text fill="#000000" font-family="sans-serif" font-size="13" lengthAdjust="spacing" textLength="162" x="278" y="224.1201">parseAndProcessJson(json)</text><line style="stroke:#181818;stroke-width:1.0;" x1="457" x2="499" y1="259.3281" y2="259.3281"/><line style="stroke:#181818;stroke-width:1.0;" x1="499" x2="499" y1="259.3281" y2="272.3281"/><line style="stroke:#181818;stroke-width:1.0;" x1="458" x2="499" y1="272.3281" y2="272.3281"/><polygon fill="#181818" points="468,268.3281,458,272.3281,468,276.3281,464,272.3281" style="stroke:#181818;stroke-width:1.0;"/><text fill="#000000" font-family="sans-serif" font-size="13" lengthAdjust="spacing" textLength="26" x="464" y="254.4717">&#35299;&#26512;</text><text fill="#000000" font-family="sans-serif" font-size="13" lengthAdjust="spacing" textLength="4" x="490" y="254.4717">&#160;</text><text fill="#000000" font-family="sans-serif" font-size="13" lengthAdjust="spacing" textLength="34" x="494" y="254.4717">JSON</text><text fill="#000000" font-family="sans-serif" font-size="13" lengthAdjust="spacing" textLength="4" x="528" y="254.4717">&#160;</text><text fill="#000000" font-family="sans-serif" font-size="13" lengthAdjust="spacing" textLength="26" x="532" y="254.4717">&#31867;&#22411;</text><path d="M10,287.3281 L71,287.3281 L71,295.6797 L61,305.6797 L10,305.6797 L10,287.3281 " fill="#EEEEEE" style="stroke:#000000;stroke-width:1.5;"/><rect fill="none" height="1278.7578" style="stroke:#000000;stroke-width:1.5;" width="825" x="10" y="287.3281"/><text fill="#000000" font-family="sans-serif" font-size="13" font-weight="bold" lengthAdjust="spacing" textLength="16" x="25" y="301.8232">alt</text><text fill="#000000" font-family="sans-serif" font-size="11" font-weight="bold" lengthAdjust="spacing" textLength="104.6875" x="86" y="300.7471">[&#31867;&#22411;: modification]</text><line style="stroke:#181818;stroke-width:1.0;" x1="457" x2="499" y1="344.3828" y2="344.3828"/><line style="stroke:#181818;stroke-width:1.0;" x1="499" x2="499" y1="344.3828" y2="357.3828"/><line style="stroke:#181818;stroke-width:1.0;" x1="458" x2="499" y1="357.3828" y2="357.3828"/><polygon fill="#181818" points="468,353.3828,458,357.3828,468,361.3828,464,357.3828" style="stroke:#181818;stroke-width:1.0;"/><text fill="#000000" font-family="sans-serif" font-size="13" lengthAdjust="spacing" textLength="52" x="464" y="323.1748">&#35299;&#26512;&#25805;&#20316;</text><text fill="#000000" font-family="sans-serif" font-size="13" lengthAdjust="spacing" textLength="110" x="464" y="339.5264">(add/delete/modify)</text><polygon fill="#181818" points="619,383.7344,629,387.7344,619,391.7344,623,387.7344" style="stroke:#181818;stroke-width:1.0;"/><line style="stroke:#181818;stroke-width:1.0;" x1="457" x2="625" y1="387.7344" y2="387.7344"/><text fill="#000000" font-family="sans-serif" font-size="13" lengthAdjust="spacing" textLength="150" x="464" y="382.8779">processJsonResult(result)</text><line style="stroke:#181818;stroke-width:1.0;" x1="631" x2="673" y1="418.0859" y2="418.0859"/><line style="stroke:#181818;stroke-width:1.0;" x1="673" x2="673" y1="418.0859" y2="431.0859"/><line style="stroke:#181818;stroke-width:1.0;" x1="632" x2="673" y1="431.0859" y2="431.0859"/><polygon fill="#181818" points="642,427.0859,632,431.0859,642,435.0859,638,431.0859" style="stroke:#181818;stroke-width:1.0;"/><text fill="#000000" font-family="sans-serif" font-size="13" lengthAdjust="spacing" textLength="52" x="638" y="413.2295">&#22788;&#29702;&#25805;&#20316;</text><line style="stroke:#181818;stroke-width:1.0;" x1="631" x2="673" y1="461.4375" y2="461.4375"/><line style="stroke:#181818;stroke-width:1.0;" x1="673" x2="673" y1="461.4375" y2="474.4375"/><line style="stroke:#181818;stroke-width:1.0;" x1="632" x2="673" y1="474.4375" y2="474.4375"/><polygon fill="#181818" points="642,470.4375,632,474.4375,642,478.4375,638,474.4375" style="stroke:#181818;stroke-width:1.0;"/><text fill="#000000" font-family="sans-serif" font-size="13" lengthAdjust="spacing" textLength="65" x="638" y="456.5811">&#26356;&#26032;&#25968;&#25454;&#24211;</text><line style="stroke:#181818;stroke-width:1.0;" x1="631" x2="673" y1="504.7891" y2="504.7891"/><line style="stroke:#181818;stroke-width:1.0;" x1="673" x2="673" y1="504.7891" y2="517.7891"/><line style="stroke:#181818;stroke-width:1.0;" x1="632" x2="673" y1="517.7891" y2="517.7891"/><polygon fill="#181818" points="642,513.7891,632,517.7891,642,521.7891,638,517.7891" style="stroke:#181818;stroke-width:1.0;"/><text fill="#000000" font-family="sans-serif" font-size="13" lengthAdjust="spacing" textLength="25" x="638" y="499.9326">emit</text><text fill="#000000" font-family="sans-serif" font-size="13" lengthAdjust="spacing" textLength="4" x="663" y="499.9326">&#160;</text><text fill="#000000" font-family="sans-serif" font-size="13" lengthAdjust="spacing" textLength="84" x="667" y="499.9326">dataChanged()</text><polygon fill="#181818" points="282,544.1406,272,548.1406,282,552.1406,278,548.1406" style="stroke:#181818;stroke-width:1.0;"/><line style="stroke:#181818;stroke-width:1.0;stroke-dasharray:2.0,2.0;" x1="276" x2="630" y1="548.1406" y2="548.1406"/><text fill="#000000" font-family="sans-serif" font-size="13" lengthAdjust="spacing" textLength="115" x="288" y="543.2842">operationCompleted</text><text fill="#000000" font-family="sans-serif" font-size="13" lengthAdjust="spacing" textLength="4" x="403" y="543.2842">&#160;</text><text fill="#000000" font-family="sans-serif" font-size="13" lengthAdjust="spacing" textLength="26" x="407" y="543.2842">&#20449;&#21495;</text><line style="stroke:#181818;stroke-width:1.0;" x1="271" x2="313" y1="578.4922" y2="578.4922"/><line style="stroke:#181818;stroke-width:1.0;" x1="313" x2="313" y1="578.4922" y2="591.4922"/><line style="stroke:#181818;stroke-width:1.0;" x1="272" x2="313" y1="591.4922" y2="591.4922"/><polygon fill="#181818" points="282,587.4922,272,591.4922,282,595.4922,278,591.4922" style="stroke:#181818;stroke-width:1.0;"/><text fill="#000000" font-family="sans-serif" font-size="13" lengthAdjust="spacing" textLength="74" x="278" y="573.6357">refreshData()</text><line style="stroke:#000000;stroke-width:1.0;stroke-dasharray:2.0,2.0;" x1="10" x2="835" y1="600.4922" y2="600.4922"/><text fill="#000000" font-family="sans-serif" font-size="11" font-weight="bold" lengthAdjust="spacing" textLength="144.6875" x="15" y="611.9111">[&#31867;&#22411;: full_update_blanket]</text><line style="stroke:#181818;stroke-width:1.0;" x1="457" x2="499" y1="637.6797" y2="637.6797"/><line style="stroke:#181818;stroke-width:1.0;" x1="499" x2="499" y1="637.6797" y2="650.6797"/><line style="stroke:#181818;stroke-width:1.0;" x1="458" x2="499" y1="650.6797" y2="650.6797"/><polygon fill="#181818" points="468,646.6797,458,650.6797,468,654.6797,464,650.6797" style="stroke:#181818;stroke-width:1.0;"/><text fill="#000000" font-family="sans-serif" font-size="13" lengthAdjust="spacing" textLength="26" x="464" y="632.8232">&#35299;&#26512;</text><text fill="#000000" font-family="sans-serif" font-size="13" lengthAdjust="spacing" textLength="4" x="490" y="632.8232">&#160;</text><text fill="#000000" font-family="sans-serif" font-size="13" lengthAdjust="spacing" textLength="62" x="494" y="632.8232">full_update</text><text fill="#000000" font-family="sans-serif" font-size="13" lengthAdjust="spacing" textLength="4" x="556" y="632.8232">&#160;</text><text fill="#000000" font-family="sans-serif" font-size="13" lengthAdjust="spacing" textLength="26" x="560" y="632.8232">&#20869;&#23481;</text><polygon fill="#181818" points="619,677.0313,629,681.0313,619,685.0313,623,681.0313" style="stroke:#181818;stroke-width:1.0;"/><line style="stroke:#181818;stroke-width:1.0;" x1="457" x2="625" y1="681.0313" y2="681.0313"/><text fill="#000000" font-family="sans-serif" font-size="13" lengthAdjust="spacing" textLength="150" x="464" y="676.1748">processJsonResult(result)</text><line style="stroke:#181818;stroke-width:1.0;" x1="631" x2="673" y1="711.3828" y2="711.3828"/><line style="stroke:#181818;stroke-width:1.0;" x1="673" x2="673" y1="711.3828" y2="724.3828"/><line style="stroke:#181818;stroke-width:1.0;" x1="632" x2="673" y1="724.3828" y2="724.3828"/><polygon fill="#181818" points="642,720.3828,632,724.3828,642,728.3828,638,724.3828" style="stroke:#181818;stroke-width:1.0;"/><text fill="#000000" font-family="sans-serif" font-size="13" lengthAdjust="spacing" textLength="116" x="638" y="706.5264">processFullUpdate()</text><line style="stroke:#181818;stroke-width:1.0;" x1="631" x2="673" y1="754.7344" y2="754.7344"/><line style="stroke:#181818;stroke-width:1.0;" x1="673" x2="673" y1="754.7344" y2="767.7344"/><line style="stroke:#181818;stroke-width:1.0;" x1="632" x2="673" y1="767.7344" y2="767.7344"/><polygon fill="#181818" points="642,763.7344,632,767.7344,642,771.7344,638,767.7344" style="stroke:#181818;stroke-width:1.0;"/><text fill="#000000" font-family="sans-serif" font-size="13" lengthAdjust="spacing" textLength="130" x="638" y="749.8779">&#21512;&#24182;&#26381;&#21153;&#22120;&#21644;&#26412;&#22320;&#25968;&#25454;</text><line style="stroke:#181818;stroke-width:1.0;" x1="631" x2="673" y1="798.0859" y2="798.0859"/><line style="stroke:#181818;stroke-width:1.0;" x1="673" x2="673" y1="798.0859" y2="811.0859"/><line style="stroke:#181818;stroke-width:1.0;" x1="632" x2="673" y1="811.0859" y2="811.0859"/><polygon fill="#181818" points="642,807.0859,632,811.0859,642,815.0859,638,811.0859" style="stroke:#181818;stroke-width:1.0;"/><text fill="#000000" font-family="sans-serif" font-size="13" lengthAdjust="spacing" textLength="65" x="638" y="793.2295">&#26356;&#26032;&#25968;&#25454;&#24211;</text><line style="stroke:#181818;stroke-width:1.0;" x1="631" x2="673" y1="841.4375" y2="841.4375"/><line style="stroke:#181818;stroke-width:1.0;" x1="673" x2="673" y1="841.4375" y2="854.4375"/><line style="stroke:#181818;stroke-width:1.0;" x1="632" x2="673" y1="854.4375" y2="854.4375"/><polygon fill="#181818" points="642,850.4375,632,854.4375,642,858.4375,638,854.4375" style="stroke:#181818;stroke-width:1.0;"/><text fill="#000000" font-family="sans-serif" font-size="13" lengthAdjust="spacing" textLength="25" x="638" y="836.5811">emit</text><text fill="#000000" font-family="sans-serif" font-size="13" lengthAdjust="spacing" textLength="4" x="663" y="836.5811">&#160;</text><text fill="#000000" font-family="sans-serif" font-size="13" lengthAdjust="spacing" textLength="84" x="667" y="836.5811">dataChanged()</text><polygon fill="#181818" points="282,880.7891,272,884.7891,282,888.7891,278,884.7891" style="stroke:#181818;stroke-width:1.0;"/><line style="stroke:#181818;stroke-width:1.0;stroke-dasharray:2.0,2.0;" x1="276" x2="630" y1="884.7891" y2="884.7891"/><text fill="#000000" font-family="sans-serif" font-size="13" lengthAdjust="spacing" textLength="115" x="288" y="879.9326">operationCompleted</text><text fill="#000000" font-family="sans-serif" font-size="13" lengthAdjust="spacing" textLength="4" x="403" y="879.9326">&#160;</text><text fill="#000000" font-family="sans-serif" font-size="13" lengthAdjust="spacing" textLength="26" x="407" y="879.9326">&#20449;&#21495;</text><line style="stroke:#181818;stroke-width:1.0;" x1="271" x2="313" y1="915.1406" y2="915.1406"/><line style="stroke:#181818;stroke-width:1.0;" x1="313" x2="313" y1="915.1406" y2="928.1406"/><line style="stroke:#181818;stroke-width:1.0;" x1="272" x2="313" y1="928.1406" y2="928.1406"/><polygon fill="#181818" points="282,924.1406,272,928.1406,282,932.1406,278,928.1406" style="stroke:#181818;stroke-width:1.0;"/><text fill="#000000" font-family="sans-serif" font-size="13" lengthAdjust="spacing" textLength="74" x="278" y="910.2842">refreshData()</text><line style="stroke:#000000;stroke-width:1.0;stroke-dasharray:2.0,2.0;" x1="10" x2="835" y1="937.1406" y2="937.1406"/><text fill="#000000" font-family="sans-serif" font-size="11" font-weight="bold" lengthAdjust="spacing" textLength="123.6875" x="15" y="948.5596">[&#31867;&#22411;: full_update_mix]</text><line style="stroke:#181818;stroke-width:1.0;" x1="457" x2="499" y1="974.3281" y2="974.3281"/><line style="stroke:#181818;stroke-width:1.0;" x1="499" x2="499" y1="974.3281" y2="987.3281"/><line style="stroke:#181818;stroke-width:1.0;" x1="458" x2="499" y1="987.3281" y2="987.3281"/><polygon fill="#181818" points="468,983.3281,458,987.3281,468,991.3281,464,987.3281" style="stroke:#181818;stroke-width:1.0;"/><text fill="#000000" font-family="sans-serif" font-size="13" lengthAdjust="spacing" textLength="26" x="464" y="969.4717">&#35299;&#26512;</text><text fill="#000000" font-family="sans-serif" font-size="13" lengthAdjust="spacing" textLength="4" x="490" y="969.4717">&#160;</text><text fill="#000000" font-family="sans-serif" font-size="13" lengthAdjust="spacing" textLength="62" x="494" y="969.4717">full_update</text><text fill="#000000" font-family="sans-serif" font-size="13" lengthAdjust="spacing" textLength="4" x="556" y="969.4717">&#160;</text><text fill="#000000" font-family="sans-serif" font-size="13" lengthAdjust="spacing" textLength="26" x="560" y="969.4717">&#20869;&#23481;</text><polygon fill="#181818" points="619,1013.6797,629,1017.6797,619,1021.6797,623,1017.6797" style="stroke:#181818;stroke-width:1.0;"/><line style="stroke:#181818;stroke-width:1.0;" x1="457" x2="625" y1="1017.6797" y2="1017.6797"/><text fill="#000000" font-family="sans-serif" font-size="13" lengthAdjust="spacing" textLength="150" x="464" y="1012.8232">processJsonResult(result)</text><line style="stroke:#181818;stroke-width:1.0;" x1="631" x2="673" y1="1048.0313" y2="1048.0313"/><line style="stroke:#181818;stroke-width:1.0;" x1="673" x2="673" y1="1048.0313" y2="1061.0313"/><line style="stroke:#181818;stroke-width:1.0;" x1="632" x2="673" y1="1061.0313" y2="1061.0313"/><polygon fill="#181818" points="642,1057.0313,632,1061.0313,642,1065.0313,638,1061.0313" style="stroke:#181818;stroke-width:1.0;"/><text fill="#000000" font-family="sans-serif" font-size="13" lengthAdjust="spacing" textLength="185" x="638" y="1043.1748">processFullUpdateNoresponse()</text><line style="stroke:#181818;stroke-width:1.0;" x1="631" x2="673" y1="1091.3828" y2="1091.3828"/><line style="stroke:#181818;stroke-width:1.0;" x1="673" x2="673" y1="1091.3828" y2="1104.3828"/><line style="stroke:#181818;stroke-width:1.0;" x1="632" x2="673" y1="1104.3828" y2="1104.3828"/><polygon fill="#181818" points="642,1100.3828,632,1104.3828,642,1108.3828,638,1104.3828" style="stroke:#181818;stroke-width:1.0;"/><text fill="#000000" font-family="sans-serif" font-size="13" lengthAdjust="spacing" textLength="91" x="638" y="1086.5264">&#28165;&#31354;&#24182;&#26367;&#25442;&#25968;&#25454;</text><line style="stroke:#181818;stroke-width:1.0;" x1="631" x2="673" y1="1134.7344" y2="1134.7344"/><line style="stroke:#181818;stroke-width:1.0;" x1="673" x2="673" y1="1134.7344" y2="1147.7344"/><line style="stroke:#181818;stroke-width:1.0;" x1="632" x2="673" y1="1147.7344" y2="1147.7344"/><polygon fill="#181818" points="642,1143.7344,632,1147.7344,642,1151.7344,638,1147.7344" style="stroke:#181818;stroke-width:1.0;"/><text fill="#000000" font-family="sans-serif" font-size="13" lengthAdjust="spacing" textLength="25" x="638" y="1129.8779">emit</text><text fill="#000000" font-family="sans-serif" font-size="13" lengthAdjust="spacing" textLength="4" x="663" y="1129.8779">&#160;</text><text fill="#000000" font-family="sans-serif" font-size="13" lengthAdjust="spacing" textLength="86" x="667" y="1129.8779">replyToServer()</text><line style="stroke:#181818;stroke-width:1.0;" x1="631" x2="673" y1="1178.0859" y2="1178.0859"/><line style="stroke:#181818;stroke-width:1.0;" x1="673" x2="673" y1="1178.0859" y2="1191.0859"/><line style="stroke:#181818;stroke-width:1.0;" x1="632" x2="673" y1="1191.0859" y2="1191.0859"/><polygon fill="#181818" points="642,1187.0859,632,1191.0859,642,1195.0859,638,1191.0859" style="stroke:#181818;stroke-width:1.0;"/><text fill="#000000" font-family="sans-serif" font-size="13" lengthAdjust="spacing" textLength="163" x="638" y="1173.2295">getTodoItemsAsJsonString()</text><polygon fill="#181818" points="282,1217.4375,272,1221.4375,282,1225.4375,278,1221.4375" style="stroke:#181818;stroke-width:1.0;"/><line style="stroke:#181818;stroke-width:1.0;stroke-dasharray:2.0,2.0;" x1="276" x2="630" y1="1221.4375" y2="1221.4375"/><text fill="#000000" font-family="sans-serif" font-size="13" lengthAdjust="spacing" textLength="78" x="288" y="1216.5811">replyToServer</text><text fill="#000000" font-family="sans-serif" font-size="13" lengthAdjust="spacing" textLength="4" x="366" y="1216.5811">&#160;</text><text fill="#000000" font-family="sans-serif" font-size="13" lengthAdjust="spacing" textLength="26" x="370" y="1216.5811">&#20449;&#21495;</text><polygon fill="#181818" points="92,1247.7891,82,1251.7891,92,1255.7891,88,1251.7891" style="stroke:#181818;stroke-width:1.0;"/><line style="stroke:#181818;stroke-width:1.0;" x1="86" x2="270" y1="1251.7891" y2="1251.7891"/><text fill="#000000" font-family="sans-serif" font-size="13" lengthAdjust="spacing" textLength="67" x="98" y="1246.9326">json_to_run</text><text fill="#000000" font-family="sans-serif" font-size="13" lengthAdjust="spacing" textLength="4" x="165" y="1246.9326">&#160;</text><text fill="#000000" font-family="sans-serif" font-size="13" lengthAdjust="spacing" textLength="8" x="169" y="1246.9326">=</text><text fill="#000000" font-family="sans-serif" font-size="13" lengthAdjust="spacing" textLength="4" x="177" y="1246.9326">&#160;</text><text fill="#000000" font-family="sans-serif" font-size="13" lengthAdjust="spacing" textLength="14" x="181" y="1246.9326">db</text><text fill="#000000" font-family="sans-serif" font-size="13" lengthAdjust="spacing" textLength="4" x="195" y="1246.9326">&#160;</text><text fill="#000000" font-family="sans-serif" font-size="13" lengthAdjust="spacing" textLength="34" x="199" y="1246.9326">JSON</text><polygon fill="#181818" points="92,1278.1406,82,1282.1406,92,1286.1406,88,1282.1406" style="stroke:#181818;stroke-width:1.0;"/><line style="stroke:#181818;stroke-width:1.0;" x1="86" x2="270" y1="1282.1406" y2="1282.1406"/><text fill="#000000" font-family="sans-serif" font-size="13" lengthAdjust="spacing" textLength="156" x="98" y="1277.2842">sendMessage(json_to_run)</text><line style="stroke:#181818;stroke-width:1.0;" x1="81" x2="123" y1="1312.4922" y2="1312.4922"/><line style="stroke:#181818;stroke-width:1.0;" x1="123" x2="123" y1="1312.4922" y2="1325.4922"/><line style="stroke:#181818;stroke-width:1.0;" x1="82" x2="123" y1="1325.4922" y2="1325.4922"/><polygon fill="#181818" points="92,1321.4922,82,1325.4922,92,1329.4922,88,1325.4922" style="stroke:#181818;stroke-width:1.0;"/><text fill="#000000" font-family="sans-serif" font-size="13" lengthAdjust="spacing" textLength="78" x="88" y="1307.6357">&#21457;&#36865;&#21040;&#26381;&#21153;&#22120;</text><line style="stroke:#181818;stroke-width:1.0;" x1="631" x2="673" y1="1355.8438" y2="1355.8438"/><line style="stroke:#181818;stroke-width:1.0;" x1="673" x2="673" y1="1355.8438" y2="1368.8438"/><line style="stroke:#181818;stroke-width:1.0;" x1="632" x2="673" y1="1368.8438" y2="1368.8438"/><polygon fill="#181818" points="642,1364.8438,632,1368.8438,642,1372.8438,638,1368.8438" style="stroke:#181818;stroke-width:1.0;"/><text fill="#000000" font-family="sans-serif" font-size="13" lengthAdjust="spacing" textLength="105" x="638" y="1350.9873">resetOfflineFlags()</text><line style="stroke:#181818;stroke-width:1.0;" x1="271" x2="313" y1="1399.1953" y2="1399.1953"/><line style="stroke:#181818;stroke-width:1.0;" x1="313" x2="313" y1="1399.1953" y2="1412.1953"/><line style="stroke:#181818;stroke-width:1.0;" x1="272" x2="313" y1="1412.1953" y2="1412.1953"/><polygon fill="#181818" points="282,1408.1953,272,1412.1953,282,1416.1953,278,1412.1953" style="stroke:#181818;stroke-width:1.0;"/><text fill="#000000" font-family="sans-serif" font-size="13" lengthAdjust="spacing" textLength="74" x="278" y="1394.3389">refreshData()</text><line style="stroke:#000000;stroke-width:1.0;stroke-dasharray:2.0,2.0;" x1="10" x2="835" y1="1421.1953" y2="1421.1953"/><text fill="#000000" font-family="sans-serif" font-size="11" font-weight="bold" lengthAdjust="spacing" textLength="90.6875" x="15" y="1432.6143">[&#31867;&#22411;: response]</text><line style="stroke:#181818;stroke-width:1.0;" x1="457" x2="499" y1="1458.3828" y2="1458.3828"/><line style="stroke:#181818;stroke-width:1.0;" x1="499" x2="499" y1="1458.3828" y2="1471.3828"/><line style="stroke:#181818;stroke-width:1.0;" x1="458" x2="499" y1="1471.3828" y2="1471.3828"/><polygon fill="#181818" points="468,1467.3828,458,1471.3828,468,1475.3828,464,1471.3828" style="stroke:#181818;stroke-width:1.0;"/><text fill="#000000" font-family="sans-serif" font-size="13" lengthAdjust="spacing" textLength="52" x="464" y="1453.5264">&#30830;&#35748;&#21709;&#24212;</text><line style="stroke:#181818;stroke-width:1.0;" x1="631" x2="673" y1="1501.7344" y2="1501.7344"/><line style="stroke:#181818;stroke-width:1.0;" x1="673" x2="673" y1="1501.7344" y2="1514.7344"/><line style="stroke:#181818;stroke-width:1.0;" x1="632" x2="673" y1="1514.7344" y2="1514.7344"/><polygon fill="#181818" points="642,1510.7344,632,1514.7344,642,1518.7344,638,1514.7344" style="stroke:#181818;stroke-width:1.0;"/><text fill="#000000" font-family="sans-serif" font-size="13" lengthAdjust="spacing" textLength="104" x="638" y="1496.8779">&#26631;&#35760;&#39033;&#30446;&#20026;&#24050;&#21516;&#27493;</text><line style="stroke:#181818;stroke-width:1.0;" x1="631" x2="673" y1="1545.0859" y2="1545.0859"/><line style="stroke:#181818;stroke-width:1.0;" x1="673" x2="673" y1="1545.0859" y2="1558.0859"/><line style="stroke:#181818;stroke-width:1.0;" x1="632" x2="673" y1="1558.0859" y2="1558.0859"/><polygon fill="#181818" points="642,1554.0859,632,1558.0859,642,1562.0859,638,1558.0859" style="stroke:#181818;stroke-width:1.0;"/><text fill="#000000" font-family="sans-serif" font-size="13" lengthAdjust="spacing" textLength="105" x="638" y="1540.2295">resetOfflineFlags()</text><polygon fill="#181818" points="259,1591.4375,269,1595.4375,259,1599.4375,263,1595.4375" style="stroke:#181818;stroke-width:1.0;"/><line style="stroke:#181818;stroke-width:1.0;" x1="81" x2="265" y1="1595.4375" y2="1595.4375"/><text fill="#000000" font-family="sans-serif" font-size="13" lengthAdjust="spacing" textLength="67" x="88" y="1590.5811">json_to_run</text><text fill="#000000" font-family="sans-serif" font-size="13" lengthAdjust="spacing" textLength="4" x="155" y="1590.5811">&#160;</text><text fill="#000000" font-family="sans-serif" font-size="13" lengthAdjust="spacing" textLength="8" x="159" y="1590.5811">=</text><text fill="#000000" font-family="sans-serif" font-size="13" lengthAdjust="spacing" textLength="4" x="167" y="1590.5811">&#160;</text><text fill="#000000" font-family="sans-serif" font-size="13" lengthAdjust="spacing" textLength="10" x="171" y="1590.5811">""</text><!--SRC=[pPHTJnD158RlzrTCUbKk4BtmfeacGaDI4i2mD5msq-vfEx8xiyvE4RoIH90ebIfeOcY8LOYOQAr6-QWn_1bc2l_2sG_efmdnHlUckptldFFESsQE8C86f9xlgQq3LItBfpNvPbyThAdbB-h7Scl_cM5uyuIwc6C7EOooN94p1v3W9UY8U4LiiGU45b0Usrvdn2OKn98BY75HP9t9yE8aU1ukW4aU0hfnyxfXw8WWEU9YAb1i3h8coys36BC9K153s4DpPhTc4XDwxRvZ1y5qgZiuuJ5wbxEShi9ueF2_kZL9B70MUp29gNOIgfAZXd790WqFtzPb4qXkl3X_j8mcpEaf508ovamK1HcTXKKHxMS6Sa0Mm8hVqmQ68bKwbK3W486SWQ9qoXVv_X986_JW3hKYx_us8fN_Jrjtzk6zsgc4ZbfVVyeTtIniY-WzeTjbaJp9OK4ODP1-1YrNc-NJNrKKnvOrOe4D0aQ2TKj3NKkIezfNsyyCU2LRn7dm4ogJenSwkVkuLLaD4_U4rFPtzRgXNZLKkIwRcptHW8-bEp9MnBIWsRGpHmIP2ppOpnXpND-iXKvFQdBZC12647qTXxpsLlIxgvE0FfANLF8bsywKN5q6CbaRKtt0_WYdKupawegi7_yrbKWthZEcWuJnFcwLDNdSleNovRggVfBL2DV_JT8XY_-6uXJJGfTHhv-dEbffVMpwIBTFLFdTG8m1A0wklJJBJE0BmFlI543CCekb13ZUdS2XARWUTVrCk_Bqu_G7XN-FCu9bU8cYMyZA1hUtH-C1jQ9H4k_GX-NQCoSSI7AjSNbYUenhC22cytb_18_RkE15Zg_Kt0kg0xhQgjNFwhjoiooRMxt8tpuvgpVEQyUjxVhfKLCUVfELTVLvxmhEzAQDZbdP3IeMCtu3]--></g></svg>