<?xml version="1.0" encoding="us-ascii" standalone="no"?><svg xmlns="http://www.w3.org/2000/svg" xmlns:xlink="http://www.w3.org/1999/xlink" contentStyleType="text/css" height="2087px" preserveAspectRatio="none" style="width:2992px;height:2087px;background:#FFFFFF;" version="1.1" viewBox="0 0 2992 2087" width="2992px" zoomAndPan="magnify"><defs/><g><!--class TodoItem--><g id="elem_TodoItem"><rect codeLine="9" fill="#F1F1F1" height="206.4844" id="TodoItem" rx="2.5" ry="2.5" style="stroke:#181818;stroke-width:0.5;" width="147" x="262.5" y="1874"/><ellipse cx="302.7" cy="1890" fill="#F1F1F1" rx="11" ry="11" style="stroke:#181818;stroke-width:1.0;"/><path d="M300.8094,1894.5625 Q300.5906,1894.8281 300.45,1894.9063 Q300.3094,1894.9844 300.1219,1894.9844 Q299.7313,1894.9844 299.4813,1894.7188 Q299.2469,1894.4531 299.2469,1893.8594 L299.2469,1892.7031 Q299.2469,1892.0938 299.4813,1891.8438 Q299.7313,1891.5781 300.1219,1891.5781 Q300.4188,1891.5781 300.6219,1891.7344 Q300.825,1891.8906 300.9344,1892.2656 Q301.0438,1892.625 301.1531,1892.7656 Q301.4031,1893.0156 302.0125,1893.2813 Q302.6219,1893.5469 303.3563,1893.5469 Q304.4969,1893.5469 305.2156,1893.0156 Q305.6844,1892.6875 305.6844,1892.2188 Q305.6844,1891.9063 305.4656,1891.625 Q305.2469,1891.3438 304.7313,1891.1719 Q304.4031,1891.0469 303.2469,1890.8281 Q301.8563,1890.5625 301.1375,1890.2031 Q300.4188,1889.8438 299.9969,1889.1875 Q299.5906,1888.5156 299.5906,1887.7344 Q299.5906,1886.5156 300.6063,1885.6094 Q301.6375,1884.6875 303.2781,1884.6875 Q303.9344,1884.6875 304.4813,1884.8281 Q305.0438,1884.9688 305.5125,1885.2656 Q305.8406,1884.9531 306.1688,1884.9531 Q306.5438,1884.9531 306.7781,1885.2188 Q307.0125,1885.4688 307.0125,1886.0781 L307.0125,1887.3594 Q307.0125,1887.9688 306.7781,1888.2344 Q306.5438,1888.4844 306.1688,1888.4844 Q305.8563,1888.4844 305.6219,1888.2969 Q305.4344,1888.1563 305.3406,1887.7344 Q305.2625,1887.3125 305.1219,1887.125 Q304.8719,1886.8125 304.3875,1886.6094 Q303.9188,1886.3906 303.2781,1886.3906 Q302.3563,1886.3906 301.825,1886.8125 Q301.2938,1887.2344 301.2938,1887.7031 Q301.2938,1888.0156 301.5125,1888.3125 Q301.7313,1888.6094 302.1531,1888.7813 Q302.4344,1888.8906 303.7313,1889.1563 Q305.0438,1889.4063 305.7469,1889.7188 Q306.45,1890.0156 306.9188,1890.6719 Q307.3875,1891.3281 307.3875,1892.2344 Q307.3875,1893.5 306.4969,1894.25 Q305.3094,1895.25 303.4813,1895.25 Q302.7781,1895.25 302.1063,1895.0781 Q301.45,1894.9063 300.8094,1894.5625 Z " fill="#000000"/><text fill="#000000" font-family="sans-serif" font-size="14" lengthAdjust="spacing" textLength="59" x="322.3" y="1895.7285">TodoItem</text><line style="stroke:#181818;stroke-width:0.5;" x1="263.5" x2="408.5" y1="1906" y2="1906"/><text fill="#000000" font-family="sans-serif" font-size="14" lengthAdjust="spacing" textLength="87" x="268.5" y="1924.5332">+QString uuid</text><text fill="#000000" font-family="sans-serif" font-size="14" lengthAdjust="spacing" textLength="135" x="268.5" y="1942.1426">+QString lastModified</text><text fill="#000000" font-family="sans-serif" font-size="14" lengthAdjust="spacing" textLength="82" x="268.5" y="1959.752">+QString title</text><text fill="#000000" font-family="sans-serif" font-size="14" lengthAdjust="spacing" textLength="129" x="268.5" y="1977.3613">+QString description</text><text fill="#000000" font-family="sans-serif" font-size="14" lengthAdjust="spacing" textLength="114" x="268.5" y="1994.9707">+QString dueDate</text><text fill="#000000" font-family="sans-serif" font-size="14" lengthAdjust="spacing" textLength="124" x="268.5" y="2012.5801">+bool completeFlag</text><text fill="#000000" font-family="sans-serif" font-size="14" lengthAdjust="spacing" textLength="102" x="268.5" y="2030.1895">+bool offlineAdd</text><text fill="#000000" font-family="sans-serif" font-size="14" lengthAdjust="spacing" textLength="118" x="268.5" y="2047.7988">+bool offlineDelete</text><line style="stroke:#181818;stroke-width:0.5;" x1="263.5" x2="408.5" y1="2054.875" y2="2054.875"/><text fill="#000000" font-family="sans-serif" font-size="14" lengthAdjust="spacing" textLength="77" x="268.5" y="2073.4082">+TodoItem()</text></g><!--class DatabaseManager--><g id="elem_DatabaseManager"><rect codeLine="23" fill="#F1F1F1" height="639.8125" id="DatabaseManager" rx="2.5" ry="2.5" style="stroke:#181818;stroke-width:0.5;" width="658" x="7" y="1156"/><ellipse cx="273.25" cy="1177.3516" fill="#C2C2C2" rx="11" ry="11" style="stroke:#181818;stroke-width:1.0;"/><path d="M276.0156,1173.2266 Q276.1719,1173.0078 276.3594,1172.8984 Q276.5469,1172.7891 276.7656,1172.7891 Q277.1406,1172.7891 277.375,1173.0547 Q277.6094,1173.3047 277.6094,1173.9141 L277.6094,1175.3672 Q277.6094,1175.9766 277.375,1176.2422 Q277.1406,1176.5078 276.7656,1176.5078 Q276.4219,1176.5078 276.2188,1176.3047 Q276.0156,1176.1172 275.9063,1175.6016 Q275.8594,1175.2422 275.6719,1175.0547 Q275.3438,1174.6797 274.7344,1174.4609 Q274.125,1174.2422 273.5,1174.2422 Q272.7344,1174.2422 272.0938,1174.5703 Q271.4688,1174.8984 270.9688,1175.6484 Q270.4844,1176.3984 270.4844,1177.4297 L270.4844,1178.5234 Q270.4844,1179.7578 271.375,1180.5859 Q272.2656,1181.3984 273.8594,1181.3984 Q274.7969,1181.3984 275.4531,1181.1484 Q275.8438,1180.9922 276.2656,1180.5547 Q276.5313,1180.2891 276.6719,1180.2109 Q276.8281,1180.1328 277.0313,1180.1328 Q277.3594,1180.1328 277.6094,1180.3984 Q277.875,1180.6484 277.875,1180.9922 Q277.875,1181.3359 277.5313,1181.7422 Q277.0313,1182.3203 276.2344,1182.6484 Q275.1563,1183.1016 273.8594,1183.1016 Q272.3438,1183.1016 271.1406,1182.4766 Q270.1563,1181.9766 269.4688,1180.9141 Q268.7813,1179.8359 268.7813,1178.5547 L268.7813,1177.3984 Q268.7813,1176.0703 269.3906,1174.9297 Q270.0156,1173.7734 271.1094,1173.1641 Q272.2031,1172.5391 273.4375,1172.5391 Q274.1719,1172.5391 274.8125,1172.7109 Q275.4688,1172.8672 276.0156,1173.2266 Z " fill="#000000"/><text fill="#000000" font-family="sans-serif" font-size="12" font-style="italic" lengthAdjust="spacing" textLength="66" x="319.25" y="1173.457">&#171;Singleton&#187;</text><text fill="#000000" font-family="sans-serif" font-size="14" lengthAdjust="spacing" textLength="117" x="293.75" y="1190.627">DatabaseManager</text><line style="stroke:#181818;stroke-width:0.5;" x1="8" x2="664" y1="1198.7031" y2="1198.7031"/><text fill="#000000" font-family="sans-serif" font-size="14" lengthAdjust="spacing" textLength="221" x="13" y="1217.2363">-static DatabaseManager *instance</text><text fill="#000000" font-family="sans-serif" font-size="14" lengthAdjust="spacing" textLength="179" x="13" y="1234.8457">-QSqlDatabase m_database</text><line style="stroke:#181818;stroke-width:0.5;" x1="8" x2="664" y1="1241.9219" y2="1241.9219"/><text fill="#000000" font-family="sans-serif" font-size="14" lengthAdjust="spacing" textLength="292" x="13" y="1260.4551">+DatabaseManager(QObject *parent = nullptr)</text><text fill="#000000" font-family="sans-serif" font-size="14" lengthAdjust="spacing" textLength="143" x="13" y="1278.0645">+~DatabaseManager()</text><text fill="#000000" font-family="sans-serif" font-size="14" lengthAdjust="spacing" textLength="254" x="13" y="1295.6738">+static DatabaseManager *getInstance()</text><text fill="#000000" font-family="sans-serif" font-size="14" lengthAdjust="spacing" textLength="185" x="13" y="1313.2832">+static void destroyInstance()</text><text fill="#000000" font-family="sans-serif" font-size="14" lengthAdjust="spacing" textLength="224" x="13" y="1330.8926">+Q_INVOKABLE bool createTable()</text><text fill="#000000" font-family="sans-serif" font-size="14" lengthAdjust="spacing" textLength="285" x="13" y="1348.502">+Q_INVOKABLE QVariantList getTodoItems()</text><text fill="#000000" font-family="sans-serif" font-size="14" lengthAdjust="spacing" textLength="467" x="13" y="1366.1113">+Q_INVOKABLE bool processJsonResult(const QVariantMap &amp;jsonResult)</text><text fill="#000000" font-family="sans-serif" font-size="14" lengthAdjust="spacing" textLength="285" x="13" y="1383.7207">+Q_INVOKABLE QVariantMap getSyncData()</text><text fill="#000000" font-family="sans-serif" font-size="14" lengthAdjust="spacing" textLength="394" x="13" y="1401.3301">+Q_INVOKABLE bool markItemAsSynced(const QString &amp;uuid)</text><text fill="#000000" font-family="sans-serif" font-size="14" lengthAdjust="spacing" textLength="256" x="13" y="1418.9395">+Q_INVOKABLE bool resetOfflineFlags()</text><text fill="#000000" font-family="sans-serif" font-size="14" lengthAdjust="spacing" textLength="337" x="13" y="1436.5488">+Q_INVOKABLE QString getTodoItemsAsJsonString()</text><text fill="#000000" font-family="sans-serif" font-size="14" lengthAdjust="spacing" textLength="234" x="13" y="1454.1582">+QJsonObject getTodoItemsAsJson()</text><text fill="#000000" font-family="sans-serif" font-size="14" lengthAdjust="spacing" textLength="271" x="13" y="1471.7676">+void markOnlineAdd(const QString &amp;uuid)</text><text fill="#000000" font-family="sans-serif" font-size="14" lengthAdjust="spacing" textLength="287" x="13" y="1489.377">+void markOnlineDelete(const QString &amp;uuid)</text><text fill="#000000" font-family="sans-serif" font-size="14" lengthAdjust="spacing" text-decoration="underline" textLength="156" x="13" y="1506.9863">-bool initializeDatabase()</text><text fill="#000000" font-family="sans-serif" font-size="14" lengthAdjust="spacing" textLength="152" x="13" y="1524.5957">-QString generateUuid()</text><text fill="#000000" font-family="sans-serif" font-size="14" lengthAdjust="spacing" textLength="122" x="13" y="1542.2051">-bool clearAllData()</text><text fill="#000000" font-family="sans-serif" font-size="14" lengthAdjust="spacing" textLength="461" x="13" y="1559.8145">-bool insertTodoItem(const QVariantMap &amp;item, bool isOfflineAdd = false)</text><text fill="#000000" font-family="sans-serif" font-size="14" lengthAdjust="spacing" textLength="447" x="13" y="1577.4238">-bool deleteTodoItem(const QString &amp;uuid, bool isOfflineDelete = false)</text><text fill="#000000" font-family="sans-serif" font-size="14" lengthAdjust="spacing" textLength="473" x="13" y="1595.0332">-bool updateTodoItem(const QString &amp;uuid, const QVariantMap &amp;itemData)</text><text fill="#000000" font-family="sans-serif" font-size="14" lengthAdjust="spacing" textLength="326" x="13" y="1612.6426">-bool processFullUpdate(const QVariantList &amp;items)</text><text fill="#000000" font-family="sans-serif" font-size="14" lengthAdjust="spacing" textLength="402" x="13" y="1630.252">-bool processFullUpdateNoresponse(const QVariantList &amp;items)</text><text fill="#000000" font-family="sans-serif" font-size="14" lengthAdjust="spacing" textLength="408" x="13" y="1647.8613">-bool processAddOperation(const QVariantMap &amp;operationData)</text><text fill="#000000" font-family="sans-serif" font-size="14" lengthAdjust="spacing" textLength="424" x="13" y="1665.4707">-bool processDeleteOperation(const QVariantMap &amp;operationData)</text><text fill="#000000" font-family="sans-serif" font-size="14" lengthAdjust="spacing" textLength="424" x="13" y="1683.0801">-bool processModifyOperation(const QVariantMap &amp;operationData)</text><text fill="#000000" font-family="sans-serif" font-size="14" lengthAdjust="spacing" textLength="381" x="13" y="1700.6895">-bool applyServerChanges(const QVariantList &amp;serverItems)</text><text fill="#000000" font-family="sans-serif" font-size="14" lengthAdjust="spacing" textLength="218" x="13" y="1718.2988">-QSet&lt;QString&gt; getCurrentUuids()</text><text fill="#000000" font-family="sans-serif" font-size="14" lengthAdjust="spacing" textLength="409" x="13" y="1735.9082">-void handleOfflineAdditions(const QSet&lt;QString&gt; &amp;serverUuids)</text><text fill="#000000" font-family="sans-serif" font-size="14" lengthAdjust="spacing" textLength="646" x="13" y="1753.5176">-void handleServerDeletions(const QSet&lt;QString&gt; &amp;serverUuids, const QSet&lt;QString&gt; &amp;currentUuids)</text><text fill="#000000" font-family="sans-serif" font-size="14" lengthAdjust="spacing" textLength="642" x="13" y="1771.127">-void handleServerAddtions(const QSet&lt;QString&gt; &amp;serverUuids, const QSet&lt;QString&gt; &amp;currentUuids)</text><text fill="#000000" font-family="sans-serif" font-size="14" lengthAdjust="spacing" textLength="374" x="13" y="1788.7363">-void handleDataConflicts(const QVariantList &amp;serverItems)</text></g><!--class WebSocketClient--><g id="elem_WebSocketClient"><rect codeLine="59" fill="#F1F1F1" height="375.6719" id="WebSocketClient" rx="2.5" ry="2.5" style="stroke:#181818;stroke-width:0.5;" width="414" x="730" y="470"/><ellipse cx="878.75" cy="491.3516" fill="#C2C2C2" rx="11" ry="11" style="stroke:#181818;stroke-width:1.0;"/><path d="M881.5156,487.2266 Q881.6719,487.0078 881.8594,486.8984 Q882.0469,486.7891 882.2656,486.7891 Q882.6406,486.7891 882.875,487.0547 Q883.1094,487.3047 883.1094,487.9141 L883.1094,489.3672 Q883.1094,489.9766 882.875,490.2422 Q882.6406,490.5078 882.2656,490.5078 Q881.9219,490.5078 881.7188,490.3047 Q881.5156,490.1172 881.4063,489.6016 Q881.3594,489.2422 881.1719,489.0547 Q880.8438,488.6797 880.2344,488.4609 Q879.625,488.2422 879,488.2422 Q878.2344,488.2422 877.5938,488.5703 Q876.9688,488.8984 876.4688,489.6484 Q875.9844,490.3984 875.9844,491.4297 L875.9844,492.5234 Q875.9844,493.7578 876.875,494.5859 Q877.7656,495.3984 879.3594,495.3984 Q880.2969,495.3984 880.9531,495.1484 Q881.3438,494.9922 881.7656,494.5547 Q882.0313,494.2891 882.1719,494.2109 Q882.3281,494.1328 882.5313,494.1328 Q882.8594,494.1328 883.1094,494.3984 Q883.375,494.6484 883.375,494.9922 Q883.375,495.3359 883.0313,495.7422 Q882.5313,496.3203 881.7344,496.6484 Q880.6563,497.1016 879.3594,497.1016 Q877.8438,497.1016 876.6406,496.4766 Q875.6563,495.9766 874.9688,494.9141 Q874.2813,493.8359 874.2813,492.5547 L874.2813,491.3984 Q874.2813,490.0703 874.8906,488.9297 Q875.5156,487.7734 876.6094,487.1641 Q877.7031,486.5391 878.9375,486.5391 Q879.6719,486.5391 880.3125,486.7109 Q880.9688,486.8672 881.5156,487.2266 Z " fill="#000000"/><text fill="#000000" font-family="sans-serif" font-size="12" font-style="italic" lengthAdjust="spacing" textLength="66" x="920.25" y="487.457">&#171;Singleton&#187;</text><text fill="#000000" font-family="sans-serif" font-size="14" lengthAdjust="spacing" textLength="108" x="899.25" y="504.627">WebSocketClient</text><line style="stroke:#181818;stroke-width:0.5;" x1="731" x2="1143" y1="512.7031" y2="512.7031"/><text fill="#000000" font-family="sans-serif" font-size="14" lengthAdjust="spacing" textLength="212" x="736" y="531.2363">-static WebSocketClient *instance</text><text fill="#000000" font-family="sans-serif" font-size="14" lengthAdjust="spacing" textLength="184" x="736" y="548.8457">-QWebSocket *m_webSocket</text><text fill="#000000" font-family="sans-serif" font-size="14" lengthAdjust="spacing" textLength="121" x="736" y="566.4551">-bool m_connected</text><text fill="#000000" font-family="sans-serif" font-size="14" lengthAdjust="spacing" textLength="114" x="736" y="584.0645">-QString m_status</text><text fill="#000000" font-family="sans-serif" font-size="14" lengthAdjust="spacing" textLength="155" x="736" y="601.6738">-QString m_lastMessage</text><text fill="#000000" font-family="sans-serif" font-size="14" lengthAdjust="spacing" textLength="132" x="736" y="619.2832">-QString json_to_run</text><text fill="#000000" font-family="sans-serif" font-size="14" lengthAdjust="spacing" textLength="99" x="736" y="636.8926">-bool fullUpdate</text><line style="stroke:#181818;stroke-width:0.5;" x1="731" x2="1143" y1="643.9688" y2="643.9688"/><text fill="#000000" font-family="sans-serif" font-size="14" lengthAdjust="spacing" textLength="283" x="736" y="662.502">+WebSocketClient(QObject *parent = nullptr)</text><text fill="#000000" font-family="sans-serif" font-size="14" lengthAdjust="spacing" textLength="402" x="736" y="680.1113">+static WebSocketClient *getInstance(QObject *parent = nullptr)</text><text fill="#000000" font-family="sans-serif" font-size="14" lengthAdjust="spacing" textLength="185" x="736" y="697.7207">+static void destroyInstance()</text><text fill="#000000" font-family="sans-serif" font-size="14" lengthAdjust="spacing" textLength="371" x="736" y="715.3301">+Q_INVOKABLE void connectToServer(const QString &amp;url)</text><text fill="#000000" font-family="sans-serif" font-size="14" lengthAdjust="spacing" textLength="290" x="736" y="732.9395">+Q_INVOKABLE void disconnectFromServer()</text><text fill="#000000" font-family="sans-serif" font-size="14" lengthAdjust="spacing" textLength="391" x="736" y="750.5488">+Q_INVOKABLE void sendMessage(const QString &amp;message)</text><text fill="#000000" font-family="sans-serif" font-size="14" lengthAdjust="spacing" textLength="153" x="736" y="768.1582">+bool connected() const</text><text fill="#000000" font-family="sans-serif" font-size="14" lengthAdjust="spacing" textLength="146" x="736" y="785.7676">+QString status() const</text><text fill="#000000" font-family="sans-serif" font-size="14" lengthAdjust="spacing" textLength="187" x="736" y="803.377">+QString lastMessage() const</text><text fill="#000000" font-family="sans-serif" font-size="14" lengthAdjust="spacing" textLength="230" x="736" y="820.9863">-void setConnected(bool connected)</text><text fill="#000000" font-family="sans-serif" font-size="14" lengthAdjust="spacing" textLength="241" x="736" y="838.5957">-void setStatus(const QString &amp;status)</text></g><!--class JsonProcessor--><g id="elem_JsonProcessor"><rect codeLine="80" fill="#F1F1F1" height="153.6563" id="JsonProcessor" rx="2.5" ry="2.5" style="stroke:#181818;stroke-width:0.5;" width="512" x="298" y="924"/><ellipse cx="503.25" cy="940" fill="#C2C2C2" rx="11" ry="11" style="stroke:#181818;stroke-width:1.0;"/><path d="M506.0156,935.875 Q506.1719,935.6563 506.3594,935.5469 Q506.5469,935.4375 506.7656,935.4375 Q507.1406,935.4375 507.375,935.7031 Q507.6094,935.9531 507.6094,936.5625 L507.6094,938.0156 Q507.6094,938.625 507.375,938.8906 Q507.1406,939.1563 506.7656,939.1563 Q506.4219,939.1563 506.2188,938.9531 Q506.0156,938.7656 505.9063,938.25 Q505.8594,937.8906 505.6719,937.7031 Q505.3438,937.3281 504.7344,937.1094 Q504.125,936.8906 503.5,936.8906 Q502.7344,936.8906 502.0938,937.2188 Q501.4688,937.5469 500.9688,938.2969 Q500.4844,939.0469 500.4844,940.0781 L500.4844,941.1719 Q500.4844,942.4063 501.375,943.2344 Q502.2656,944.0469 503.8594,944.0469 Q504.7969,944.0469 505.4531,943.7969 Q505.8438,943.6406 506.2656,943.2031 Q506.5313,942.9375 506.6719,942.8594 Q506.8281,942.7813 507.0313,942.7813 Q507.3594,942.7813 507.6094,943.0469 Q507.875,943.2969 507.875,943.6406 Q507.875,943.9844 507.5313,944.3906 Q507.0313,944.9688 506.2344,945.2969 Q505.1563,945.75 503.8594,945.75 Q502.3438,945.75 501.1406,945.125 Q500.1563,944.625 499.4688,943.5625 Q498.7813,942.4844 498.7813,941.2031 L498.7813,940.0469 Q498.7813,938.7188 499.3906,937.5781 Q500.0156,936.4219 501.1094,935.8125 Q502.2031,935.1875 503.4375,935.1875 Q504.1719,935.1875 504.8125,935.3594 Q505.4688,935.5156 506.0156,935.875 Z " fill="#000000"/><text fill="#000000" font-family="sans-serif" font-size="14" lengthAdjust="spacing" textLength="93" x="523.75" y="945.7285">JsonProcessor</text><line style="stroke:#181818;stroke-width:0.5;" x1="299" x2="809" y1="956" y2="956"/><line style="stroke:#181818;stroke-width:0.5;" x1="299" x2="809" y1="964" y2="964"/><text fill="#000000" font-family="sans-serif" font-size="14" lengthAdjust="spacing" textLength="268" x="304" y="982.5332">+JsonProcessor(QObject *parent = nullptr)</text><text fill="#000000" font-family="sans-serif" font-size="14" lengthAdjust="spacing" textLength="500" x="304" y="1000.1426">+Q_INVOKABLE QVariantMap parseAndProcessJson(const QString &amp;jsonData)</text><text fill="#000000" font-family="sans-serif" font-size="14" lengthAdjust="spacing" textLength="485" x="304" y="1017.752">+Q_INVOKABLE QString generateFullUpdateJson(const QVariantList &amp;items)</text><text fill="#000000" font-family="sans-serif" font-size="14" lengthAdjust="spacing" textLength="479" x="304" y="1035.3613">+Q_INVOKABLE QString generateSyncJson(const QVariantMap &amp;syncData)</text><text fill="#000000" font-family="sans-serif" font-size="14" lengthAdjust="spacing" textLength="457" x="304" y="1052.9707">-QVariantList parseFullUpdateContent(const QJsonArray &amp;contentArray)</text><text fill="#000000" font-family="sans-serif" font-size="14" lengthAdjust="spacing" textLength="483" x="304" y="1070.5801">-QVariantMap parseModificationContent(const QJsonObject &amp;contentObject)</text></g><!--class JsonGenerator--><g id="elem_JsonGenerator"><rect codeLine="89" fill="#F1F1F1" height="118.4375" id="JsonGenerator" rx="2.5" ry="2.5" style="stroke:#181818;stroke-width:0.5;" width="747" x="793.5" y="274"/><ellipse cx="1115.75" cy="290" fill="#C2C2C2" rx="11" ry="11" style="stroke:#181818;stroke-width:1.0;"/><path d="M1118.5156,285.875 Q1118.6719,285.6563 1118.8594,285.5469 Q1119.0469,285.4375 1119.2656,285.4375 Q1119.6406,285.4375 1119.875,285.7031 Q1120.1094,285.9531 1120.1094,286.5625 L1120.1094,288.0156 Q1120.1094,288.625 1119.875,288.8906 Q1119.6406,289.1563 1119.2656,289.1563 Q1118.9219,289.1563 1118.7188,288.9531 Q1118.5156,288.7656 1118.4063,288.25 Q1118.3594,287.8906 1118.1719,287.7031 Q1117.8438,287.3281 1117.2344,287.1094 Q1116.625,286.8906 1116,286.8906 Q1115.2344,286.8906 1114.5938,287.2188 Q1113.9688,287.5469 1113.4688,288.2969 Q1112.9844,289.0469 1112.9844,290.0781 L1112.9844,291.1719 Q1112.9844,292.4063 1113.875,293.2344 Q1114.7656,294.0469 1116.3594,294.0469 Q1117.2969,294.0469 1117.9531,293.7969 Q1118.3438,293.6406 1118.7656,293.2031 Q1119.0313,292.9375 1119.1719,292.8594 Q1119.3281,292.7813 1119.5313,292.7813 Q1119.8594,292.7813 1120.1094,293.0469 Q1120.375,293.2969 1120.375,293.6406 Q1120.375,293.9844 1120.0313,294.3906 Q1119.5313,294.9688 1118.7344,295.2969 Q1117.6563,295.75 1116.3594,295.75 Q1114.8438,295.75 1113.6406,295.125 Q1112.6563,294.625 1111.9688,293.5625 Q1111.2813,292.4844 1111.2813,291.2031 L1111.2813,290.0469 Q1111.2813,288.7188 1111.8906,287.5781 Q1112.5156,286.4219 1113.6094,285.8125 Q1114.7031,285.1875 1115.9375,285.1875 Q1116.6719,285.1875 1117.3125,285.3594 Q1117.9688,285.5156 1118.5156,285.875 Z " fill="#000000"/><text fill="#000000" font-family="sans-serif" font-size="14" lengthAdjust="spacing" textLength="94" x="1136.25" y="295.7285">JsonGenerator</text><line style="stroke:#181818;stroke-width:0.5;" x1="794.5" x2="1539.5" y1="306" y2="306"/><line style="stroke:#181818;stroke-width:0.5;" x1="794.5" x2="1539.5" y1="314" y2="314"/><text fill="#000000" font-family="sans-serif" font-size="14" lengthAdjust="spacing" textLength="269" x="799.5" y="332.5332">+JsonGenerator(QObject *parent = nullptr)</text><text fill="#000000" font-family="sans-serif" font-size="14" lengthAdjust="spacing" textLength="585" x="799.5" y="350.1426">+Q_INVOKABLE QString generateAddJson(const QString &amp;name, int year, int month, int day)</text><text fill="#000000" font-family="sans-serif" font-size="14" lengthAdjust="spacing" textLength="422" x="799.5" y="367.752">+Q_INVOKABLE QString generateDeleteJson(const QString &amp;uuid)</text><text fill="#000000" font-family="sans-serif" font-size="14" lengthAdjust="spacing" textLength="735" x="799.5" y="385.3613">+Q_INVOKABLE QString generateModifyJson(const QString &amp;uuid, const QString &amp;name, int year, int month, int day)</text></g><!--class Date--><g id="elem_Date"><rect codeLine="96" fill="#F1F1F1" height="100.8281" id="Date" rx="2.5" ry="2.5" style="stroke:#181818;stroke-width:0.5;" width="437" x="1771.5" y="282.5"/><ellipse cx="1970.75" cy="298.5" fill="#C2C2C2" rx="11" ry="11" style="stroke:#181818;stroke-width:1.0;"/><path d="M1973.5156,294.375 Q1973.6719,294.1563 1973.8594,294.0469 Q1974.0469,293.9375 1974.2656,293.9375 Q1974.6406,293.9375 1974.875,294.2031 Q1975.1094,294.4531 1975.1094,295.0625 L1975.1094,296.5156 Q1975.1094,297.125 1974.875,297.3906 Q1974.6406,297.6563 1974.2656,297.6563 Q1973.9219,297.6563 1973.7188,297.4531 Q1973.5156,297.2656 1973.4063,296.75 Q1973.3594,296.3906 1973.1719,296.2031 Q1972.8438,295.8281 1972.2344,295.6094 Q1971.625,295.3906 1971,295.3906 Q1970.2344,295.3906 1969.5938,295.7188 Q1968.9688,296.0469 1968.4688,296.7969 Q1967.9844,297.5469 1967.9844,298.5781 L1967.9844,299.6719 Q1967.9844,300.9063 1968.875,301.7344 Q1969.7656,302.5469 1971.3594,302.5469 Q1972.2969,302.5469 1972.9531,302.2969 Q1973.3438,302.1406 1973.7656,301.7031 Q1974.0313,301.4375 1974.1719,301.3594 Q1974.3281,301.2813 1974.5313,301.2813 Q1974.8594,301.2813 1975.1094,301.5469 Q1975.375,301.7969 1975.375,302.1406 Q1975.375,302.4844 1975.0313,302.8906 Q1974.5313,303.4688 1973.7344,303.7969 Q1972.6563,304.25 1971.3594,304.25 Q1969.8438,304.25 1968.6406,303.625 Q1967.6563,303.125 1966.9688,302.0625 Q1966.2813,300.9844 1966.2813,299.7031 L1966.2813,298.5469 Q1966.2813,297.2188 1966.8906,296.0781 Q1967.5156,294.9219 1968.6094,294.3125 Q1969.7031,293.6875 1970.9375,293.6875 Q1971.6719,293.6875 1972.3125,293.8594 Q1972.9688,294.0156 1973.5156,294.375 Z " fill="#000000"/><text fill="#000000" font-family="sans-serif" font-size="14" lengthAdjust="spacing" textLength="30" x="1991.25" y="304.2285">Date</text><line style="stroke:#181818;stroke-width:0.5;" x1="1772.5" x2="2207.5" y1="314.5" y2="314.5"/><line style="stroke:#181818;stroke-width:0.5;" x1="1772.5" x2="2207.5" y1="322.5" y2="322.5"/><text fill="#000000" font-family="sans-serif" font-size="14" lengthAdjust="spacing" textLength="205" x="1777.5" y="341.0332">+Date(QObject *parent = nullptr)</text><text fill="#000000" font-family="sans-serif" font-size="14" lengthAdjust="spacing" textLength="425" x="1777.5" y="358.6426">+Q_INVOKABLE QString getExplicitDate(int year, int month, int day)</text><text fill="#000000" font-family="sans-serif" font-size="14" lengthAdjust="spacing" textLength="288" x="1777.5" y="376.252">+Q_INVOKABLE int getmodelindex(int, int, int)</text></g><!--class DataSql--><g id="elem_DataSql"><rect codeLine="102" fill="#F1F1F1" height="188.875" id="DataSql" rx="2.5" ry="2.5" style="stroke:#181818;stroke-width:0.5;" width="643" x="2158.5" y="7"/><ellipse cx="2450.75" cy="23" fill="#C2C2C2" rx="11" ry="11" style="stroke:#181818;stroke-width:1.0;"/><path d="M2453.5156,18.875 Q2453.6719,18.6563 2453.8594,18.5469 Q2454.0469,18.4375 2454.2656,18.4375 Q2454.6406,18.4375 2454.875,18.7031 Q2455.1094,18.9531 2455.1094,19.5625 L2455.1094,21.0156 Q2455.1094,21.625 2454.875,21.8906 Q2454.6406,22.1563 2454.2656,22.1563 Q2453.9219,22.1563 2453.7188,21.9531 Q2453.5156,21.7656 2453.4063,21.25 Q2453.3594,20.8906 2453.1719,20.7031 Q2452.8438,20.3281 2452.2344,20.1094 Q2451.625,19.8906 2451,19.8906 Q2450.2344,19.8906 2449.5938,20.2188 Q2448.9688,20.5469 2448.4688,21.2969 Q2447.9844,22.0469 2447.9844,23.0781 L2447.9844,24.1719 Q2447.9844,25.4063 2448.875,26.2344 Q2449.7656,27.0469 2451.3594,27.0469 Q2452.2969,27.0469 2452.9531,26.7969 Q2453.3438,26.6406 2453.7656,26.2031 Q2454.0313,25.9375 2454.1719,25.8594 Q2454.3281,25.7813 2454.5313,25.7813 Q2454.8594,25.7813 2455.1094,26.0469 Q2455.375,26.2969 2455.375,26.6406 Q2455.375,26.9844 2455.0313,27.3906 Q2454.5313,27.9688 2453.7344,28.2969 Q2452.6563,28.75 2451.3594,28.75 Q2449.8438,28.75 2448.6406,28.125 Q2447.6563,27.625 2446.9688,26.5625 Q2446.2813,25.4844 2446.2813,24.2031 L2446.2813,23.0469 Q2446.2813,21.7188 2446.8906,20.5781 Q2447.5156,19.4219 2448.6094,18.8125 Q2449.7031,18.1875 2450.9375,18.1875 Q2451.6719,18.1875 2452.3125,18.3594 Q2452.9688,18.5156 2453.5156,18.875 Z " fill="#000000"/><text fill="#000000" font-family="sans-serif" font-size="14" lengthAdjust="spacing" textLength="50" x="2471.25" y="28.7285">DataSql</text><line style="stroke:#181818;stroke-width:0.5;" x1="2159.5" x2="2800.5" y1="39" y2="39"/><text fill="#000000" font-family="sans-serif" font-size="14" lengthAdjust="spacing" textLength="136" x="2164.5" y="57.5332">-QSqlDatabase m_db</text><text fill="#000000" font-family="sans-serif" font-size="14" lengthAdjust="spacing" textLength="134" x="2164.5" y="75.1426">-QSqlQuery m_query</text><line style="stroke:#181818;stroke-width:0.5;" x1="2159.5" x2="2800.5" y1="82.2188" y2="82.2188"/><text fill="#000000" font-family="sans-serif" font-size="14" lengthAdjust="spacing" textLength="225" x="2164.5" y="100.752">+DataSql(QObject *parent = nullptr)</text><text fill="#000000" font-family="sans-serif" font-size="14" lengthAdjust="spacing" textLength="76" x="2164.5" y="118.3613">+~DataSql()</text><text fill="#000000" font-family="sans-serif" font-size="14" lengthAdjust="spacing" textLength="258" x="2164.5" y="135.9707">+Q_INVOKABLE bool initializeDatabase()</text><text fill="#000000" font-family="sans-serif" font-size="14" lengthAdjust="spacing" textLength="371" x="2164.5" y="153.5801">+Q_INVOKABLE bool executeQuery(const QString &amp;query)</text><text fill="#000000" font-family="sans-serif" font-size="14" lengthAdjust="spacing" textLength="631" x="2164.5" y="171.1895">+Q_INVOKABLE bool executeQueryWithParams(const QString &amp;query, const QVariantList &amp;params)</text><text fill="#000000" font-family="sans-serif" font-size="14" lengthAdjust="spacing" textLength="305" x="2164.5" y="188.7988">+Q_INVOKABLE QVariantList getQueryResults()</text></g><!--class main--><g id="elem_main"><rect codeLine="115" fill="#F1F1F1" height="76.3125" id="main" rx="2.5" ry="2.5" style="stroke:#181818;stroke-width:0.5;" width="207" x="543.5" y="63.5"/><ellipse cx="607.25" cy="84.8516" fill="#C2C2C2" rx="11" ry="11" style="stroke:#181818;stroke-width:1.0;"/><path d="M610.0156,80.7266 Q610.1719,80.5078 610.3594,80.3984 Q610.5469,80.2891 610.7656,80.2891 Q611.1406,80.2891 611.375,80.5547 Q611.6094,80.8047 611.6094,81.4141 L611.6094,82.8672 Q611.6094,83.4766 611.375,83.7422 Q611.1406,84.0078 610.7656,84.0078 Q610.4219,84.0078 610.2188,83.8047 Q610.0156,83.6172 609.9063,83.1016 Q609.8594,82.7422 609.6719,82.5547 Q609.3438,82.1797 608.7344,81.9609 Q608.125,81.7422 607.5,81.7422 Q606.7344,81.7422 606.0938,82.0703 Q605.4688,82.3984 604.9688,83.1484 Q604.4844,83.8984 604.4844,84.9297 L604.4844,86.0234 Q604.4844,87.2578 605.375,88.0859 Q606.2656,88.8984 607.8594,88.8984 Q608.7969,88.8984 609.4531,88.6484 Q609.8438,88.4922 610.2656,88.0547 Q610.5313,87.7891 610.6719,87.7109 Q610.8281,87.6328 611.0313,87.6328 Q611.3594,87.6328 611.6094,87.8984 Q611.875,88.1484 611.875,88.4922 Q611.875,88.8359 611.5313,89.2422 Q611.0313,89.8203 610.2344,90.1484 Q609.1563,90.6016 607.8594,90.6016 Q606.3438,90.6016 605.1406,89.9766 Q604.1563,89.4766 603.4688,88.4141 Q602.7813,87.3359 602.7813,86.0547 L602.7813,84.8984 Q602.7813,83.5703 603.3906,82.4297 Q604.0156,81.2734 605.1094,80.6641 Q606.2031,80.0391 607.4375,80.0391 Q608.1719,80.0391 608.8125,80.2109 Q609.4688,80.3672 610.0156,80.7266 Z " fill="#000000"/><text fill="#000000" font-family="sans-serif" font-size="12" font-style="italic" lengthAdjust="spacing" textLength="75" x="625.75" y="80.957">&#171;Application&#187;</text><text fill="#000000" font-family="sans-serif" font-size="14" lengthAdjust="spacing" textLength="30" x="648.25" y="98.127">main</text><line style="stroke:#181818;stroke-width:0.5;" x1="544.5" x2="749.5" y1="106.2031" y2="106.2031"/><line style="stroke:#181818;stroke-width:0.5;" x1="544.5" x2="749.5" y1="114.2031" y2="114.2031"/><text fill="#000000" font-family="sans-serif" font-size="14" lengthAdjust="spacing" textLength="195" x="549.5" y="132.7363">+int main(int argc, char *argv[])</text></g><!--class QWebSocket--><g id="elem_QWebSocket"><rect fill="#F1F1F1" height="48" id="QWebSocket" rx="2.5" ry="2.5" style="stroke:#181818;stroke-width:0.5;" width="115" x="1043.5" y="977"/><ellipse cx="1058.5" cy="993" fill="#C2C2C2" rx="11" ry="11" style="stroke:#181818;stroke-width:1.0;"/><path d="M1061.2656,988.875 Q1061.4219,988.6563 1061.6094,988.5469 Q1061.7969,988.4375 1062.0156,988.4375 Q1062.3906,988.4375 1062.625,988.7031 Q1062.8594,988.9531 1062.8594,989.5625 L1062.8594,991.0156 Q1062.8594,991.625 1062.625,991.8906 Q1062.3906,992.1563 1062.0156,992.1563 Q1061.6719,992.1563 1061.4688,991.9531 Q1061.2656,991.7656 1061.1563,991.25 Q1061.1094,990.8906 1060.9219,990.7031 Q1060.5938,990.3281 1059.9844,990.1094 Q1059.375,989.8906 1058.75,989.8906 Q1057.9844,989.8906 1057.3438,990.2188 Q1056.7188,990.5469 1056.2188,991.2969 Q1055.7344,992.0469 1055.7344,993.0781 L1055.7344,994.1719 Q1055.7344,995.4063 1056.625,996.2344 Q1057.5156,997.0469 1059.1094,997.0469 Q1060.0469,997.0469 1060.7031,996.7969 Q1061.0938,996.6406 1061.5156,996.2031 Q1061.7813,995.9375 1061.9219,995.8594 Q1062.0781,995.7813 1062.2813,995.7813 Q1062.6094,995.7813 1062.8594,996.0469 Q1063.125,996.2969 1063.125,996.6406 Q1063.125,996.9844 1062.7813,997.3906 Q1062.2813,997.9688 1061.4844,998.2969 Q1060.4063,998.75 1059.1094,998.75 Q1057.5938,998.75 1056.3906,998.125 Q1055.4063,997.625 1054.7188,996.5625 Q1054.0313,995.4844 1054.0313,994.2031 L1054.0313,993.0469 Q1054.0313,991.7188 1054.6406,990.5781 Q1055.2656,989.4219 1056.3594,988.8125 Q1057.4531,988.1875 1058.6875,988.1875 Q1059.4219,988.1875 1060.0625,988.3594 Q1060.7188,988.5156 1061.2656,988.875 Z " fill="#000000"/><text fill="#000000" font-family="sans-serif" font-size="14" lengthAdjust="spacing" textLength="83" x="1072.5" y="998.7285">QWebSocket</text><line style="stroke:#181818;stroke-width:0.5;" x1="1044.5" x2="1157.5" y1="1009" y2="1009"/><line style="stroke:#181818;stroke-width:0.5;" x1="1044.5" x2="1157.5" y1="1017" y2="1017"/></g><!--class QSqlDatabase--><g id="elem_QSqlDatabase"><rect fill="#F1F1F1" height="48" id="QSqlDatabase" rx="2.5" ry="2.5" style="stroke:#181818;stroke-width:0.5;" width="124" x="2418" y="309"/><ellipse cx="2433" cy="325" fill="#C2C2C2" rx="11" ry="11" style="stroke:#181818;stroke-width:1.0;"/><path d="M2435.7656,320.875 Q2435.9219,320.6563 2436.1094,320.5469 Q2436.2969,320.4375 2436.5156,320.4375 Q2436.8906,320.4375 2437.125,320.7031 Q2437.3594,320.9531 2437.3594,321.5625 L2437.3594,323.0156 Q2437.3594,323.625 2437.125,323.8906 Q2436.8906,324.1563 2436.5156,324.1563 Q2436.1719,324.1563 2435.9688,323.9531 Q2435.7656,323.7656 2435.6563,323.25 Q2435.6094,322.8906 2435.4219,322.7031 Q2435.0938,322.3281 2434.4844,322.1094 Q2433.875,321.8906 2433.25,321.8906 Q2432.4844,321.8906 2431.8438,322.2188 Q2431.2188,322.5469 2430.7188,323.2969 Q2430.2344,324.0469 2430.2344,325.0781 L2430.2344,326.1719 Q2430.2344,327.4063 2431.125,328.2344 Q2432.0156,329.0469 2433.6094,329.0469 Q2434.5469,329.0469 2435.2031,328.7969 Q2435.5938,328.6406 2436.0156,328.2031 Q2436.2813,327.9375 2436.4219,327.8594 Q2436.5781,327.7813 2436.7813,327.7813 Q2437.1094,327.7813 2437.3594,328.0469 Q2437.625,328.2969 2437.625,328.6406 Q2437.625,328.9844 2437.2813,329.3906 Q2436.7813,329.9688 2435.9844,330.2969 Q2434.9063,330.75 2433.6094,330.75 Q2432.0938,330.75 2430.8906,330.125 Q2429.9063,329.625 2429.2188,328.5625 Q2428.5313,327.4844 2428.5313,326.2031 L2428.5313,325.0469 Q2428.5313,323.7188 2429.1406,322.5781 Q2429.7656,321.4219 2430.8594,320.8125 Q2431.9531,320.1875 2433.1875,320.1875 Q2433.9219,320.1875 2434.5625,320.3594 Q2435.2188,320.5156 2435.7656,320.875 Z " fill="#000000"/><text fill="#000000" font-family="sans-serif" font-size="14" lengthAdjust="spacing" textLength="92" x="2447" y="330.7285">QSqlDatabase</text><line style="stroke:#181818;stroke-width:0.5;" x1="2419" x2="2541" y1="341" y2="341"/><line style="stroke:#181818;stroke-width:0.5;" x1="2419" x2="2541" y1="349" y2="349"/></g><g id="elem_GMN23"><path d="M700.5,1438.5 L700.5,1472 L665.36,1476 L700.5,1480 L700.5,1513.9063 A0,0 0 0 0 700.5,1513.9063 L885.5,1513.9063 A0,0 0 0 0 885.5,1513.9063 L885.5,1448.5 L875.5,1438.5 L700.5,1438.5 A0,0 0 0 0 700.5,1438.5 " fill="#FAFAFA" style="stroke:#181818;stroke-width:0.5;"/><path d="M875.5,1438.5 L875.5,1448.5 L885.5,1448.5 L875.5,1438.5 " fill="#FAFAFA" style="stroke:#181818;stroke-width:0.5;"/><text fill="#000000" font-family="sans-serif" font-size="13" lengthAdjust="spacing" textLength="98" x="706.5" y="1456.9951">Singleton pattern</text><text fill="#000000" font-family="sans-serif" font-size="13" lengthAdjust="spacing" textLength="154" x="706.5" y="1473.3467">Manages SQLite database</text><text fill="#000000" font-family="sans-serif" font-size="13" lengthAdjust="spacing" textLength="154" x="706.5" y="1489.6982">Handles offline/online sync</text><text fill="#000000" font-family="sans-serif" font-size="13" lengthAdjust="spacing" textLength="164" x="706.5" y="1506.0498">Processes JSON operations</text></g><g id="elem_GMN26"><path d="M1179.5,620.5 L1179.5,654 L1144.12,658 L1179.5,662 L1179.5,695.9063 A0,0 0 0 0 1179.5,695.9063 L1362.5,695.9063 A0,0 0 0 0 1362.5,695.9063 L1362.5,630.5 L1352.5,620.5 L1179.5,620.5 A0,0 0 0 0 1179.5,620.5 " fill="#FAFAFA" style="stroke:#181818;stroke-width:0.5;"/><path d="M1352.5,620.5 L1352.5,630.5 L1362.5,630.5 L1352.5,620.5 " fill="#FAFAFA" style="stroke:#181818;stroke-width:0.5;"/><text fill="#000000" font-family="sans-serif" font-size="13" lengthAdjust="spacing" textLength="98" x="1185.5" y="638.9951">Singleton pattern</text><text fill="#000000" font-family="sans-serif" font-size="13" lengthAdjust="spacing" textLength="160" x="1185.5" y="655.3467">WebSocket communication</text><text fill="#000000" font-family="sans-serif" font-size="13" lengthAdjust="spacing" textLength="156" x="1185.5" y="671.6982">Maintains connection state</text><text fill="#000000" font-family="sans-serif" font-size="13" lengthAdjust="spacing" textLength="162" x="1185.5" y="688.0498">Stores pending JSON to run</text></g><g id="elem_GMN29"><path d="M845.5,963.5 L845.5,997 L810.07,1001 L845.5,1005 L845.5,1038.9063 A0,0 0 0 0 845.5,1038.9063 L1008.5,1038.9063 A0,0 0 0 0 1008.5,1038.9063 L1008.5,973.5 L998.5,963.5 L845.5,963.5 A0,0 0 0 0 845.5,963.5 " fill="#FAFAFA" style="stroke:#181818;stroke-width:0.5;"/><path d="M998.5,963.5 L998.5,973.5 L1008.5,973.5 L998.5,963.5 " fill="#FAFAFA" style="stroke:#181818;stroke-width:0.5;"/><text fill="#000000" font-family="sans-serif" font-size="13" lengthAdjust="spacing" textLength="135" x="851.5" y="981.9951">Parses incoming JSON</text><text fill="#000000" font-family="sans-serif" font-size="13" lengthAdjust="spacing" textLength="132" x="851.5" y="998.3467">Processes full updates</text><text fill="#000000" font-family="sans-serif" font-size="13" lengthAdjust="spacing" textLength="142" x="851.5" y="1014.6982">Processes modifications</text><text fill="#000000" font-family="sans-serif" font-size="13" lengthAdjust="spacing" textLength="130" x="851.5" y="1031.0498">Generates sync JSON</text></g><g id="elem_GMN32"><path d="M1575.5,303.5 L1575.5,329 L1540.91,333 L1575.5,337 L1575.5,362.5547 A0,0 0 0 0 1575.5,362.5547 L1736.5,362.5547 A0,0 0 0 0 1736.5,362.5547 L1736.5,313.5 L1726.5,303.5 L1575.5,303.5 A0,0 0 0 0 1575.5,303.5 " fill="#FAFAFA" style="stroke:#181818;stroke-width:0.5;"/><path d="M1726.5,303.5 L1726.5,313.5 L1736.5,313.5 L1726.5,303.5 " fill="#FAFAFA" style="stroke:#181818;stroke-width:0.5;"/><text fill="#000000" font-family="sans-serif" font-size="13" lengthAdjust="spacing" textLength="123" x="1581.5" y="321.9951">Generates add JSON</text><text fill="#000000" font-family="sans-serif" font-size="13" lengthAdjust="spacing" textLength="137" x="1581.5" y="338.3467">Generates delete JSON</text><text fill="#000000" font-family="sans-serif" font-size="13" lengthAdjust="spacing" textLength="140" x="1581.5" y="354.6982">Generates modify JSON</text></g><g id="elem_GMN35"><path d="M2243.5,303.5 L2243.5,329 L2208.59,333 L2243.5,337 L2243.5,362.5547 A0,0 0 0 0 2243.5,362.5547 L2382.5,362.5547 A0,0 0 0 0 2382.5,362.5547 L2382.5,313.5 L2372.5,303.5 L2243.5,303.5 A0,0 0 0 0 2243.5,303.5 " fill="#FAFAFA" style="stroke:#181818;stroke-width:0.5;"/><path d="M2372.5,303.5 L2372.5,313.5 L2382.5,313.5 L2372.5,303.5 " fill="#FAFAFA" style="stroke:#181818;stroke-width:0.5;"/><text fill="#000000" font-family="sans-serif" font-size="13" lengthAdjust="spacing" textLength="118" x="2249.5" y="321.9951">Date utility functions</text><text fill="#000000" font-family="sans-serif" font-size="13" lengthAdjust="spacing" textLength="115" x="2249.5" y="338.3467">Calendar operations</text><text fill="#000000" font-family="sans-serif" font-size="13" lengthAdjust="spacing" textLength="88" x="2249.5" y="354.6982">Date formatting</text></g><g id="elem_GMN38"><path d="M2837,72 L2837,97.5 L2801.57,101.5 L2837,105.5 L2837,131.0547 A0,0 0 0 0 2837,131.0547 L2985,131.0547 A0,0 0 0 0 2985,131.0547 L2985,82 L2975,72 L2837,72 A0,0 0 0 0 2837,72 " fill="#FAFAFA" style="stroke:#181818;stroke-width:0.5;"/><path d="M2975,72 L2975,82 L2985,82 L2975,72 " fill="#FAFAFA" style="stroke:#181818;stroke-width:0.5;"/><text fill="#000000" font-family="sans-serif" font-size="13" lengthAdjust="spacing" textLength="111" x="2843" y="90.4951">SQL query wrapper</text><text fill="#000000" font-family="sans-serif" font-size="13" lengthAdjust="spacing" textLength="127" x="2843" y="106.8467">Database initialization</text><text fill="#000000" font-family="sans-serif" font-size="13" lengthAdjust="spacing" textLength="95" x="2843" y="123.1982">Query execution</text></g><!--reverse link DatabaseManager to TodoItem--><g id="link_DatabaseManager_TodoItem"><path codeLine="122" d="M336,1808.2 C336,1835.85 336,1850.26 336,1873.92 " fill="none" id="DatabaseManager-backto-TodoItem" style="stroke:#181818;stroke-width:1.0;"/><polygon fill="#181818" points="336,1796.2,332,1802.2,336,1808.2,340,1802.2,336,1796.2" style="stroke:#181818;stroke-width:1.0;"/><text fill="#000000" font-family="sans-serif" font-size="13" lengthAdjust="spacing" textLength="53" x="337" y="1840.4951">manages</text></g><!--reverse link WebSocketClient to QWebSocket--><g id="link_WebSocketClient_QWebSocket"><path codeLine="123" d="M1032.3597,857.275 C1057.5097,909.585 1076.44,948.93 1089.93,976.98 " fill="none" id="WebSocketClient-backto-QWebSocket" style="stroke:#181818;stroke-width:1.0;"/><polygon fill="#181818" points="1027.16,846.46,1026.1549,853.6007,1032.3597,857.275,1033.3648,850.1342,1027.16,846.46" style="stroke:#181818;stroke-width:1.0;"/><text fill="#000000" font-family="sans-serif" font-size="13" lengthAdjust="spacing" textLength="28" x="1049" y="890.4951">uses</text></g><!--reverse link DataSql to QSqlDatabase--><g id="link_DataSql_QSqlDatabase"><path codeLine="124" d="M2480,208.18 C2480,249.33 2480,282.22 2480,308.7 " fill="none" id="DataSql-backto-QSqlDatabase" style="stroke:#181818;stroke-width:1.0;"/><polygon fill="#181818" points="2480,196.18,2476,202.18,2480,208.18,2484,202.18,2480,196.18" style="stroke:#181818;stroke-width:1.0;"/><text fill="#000000" font-family="sans-serif" font-size="13" lengthAdjust="spacing" textLength="28" x="2481" y="240.4951">uses</text></g><!--link main to DatabaseManager--><g id="link_main_DatabaseManager"><path codeLine="127" d="M543.48,116.15 C424.37,138.34 245,194.58 245,332 C245,332 245,332 245,1002 C245,1052.07 249.0938,1098.6558 256.7238,1149.7458 " fill="none" id="main-to-DatabaseManager" style="stroke:#181818;stroke-width:1.0;stroke-dasharray:7.0,7.0;"/><polygon fill="#181818" points="257.61,1155.68,260.2368,1146.1879,256.8715,1150.7348,252.3245,1147.3695,257.61,1155.68" style="stroke:#181818;stroke-width:1.0;"/><text fill="#000000" font-family="sans-serif" font-size="13" lengthAdjust="spacing" textLength="109" x="246" y="663.4951">creates &amp; exposes</text></g><!--link main to WebSocketClient--><g id="link_main_WebSocketClient"><path codeLine="128" d="M641.12,139.73 C633.84,196.91 626.67,308.47 665,392 C681.09,427.05 700.1064,455.3807 725.9164,485.2407 " fill="none" id="main-to-WebSocketClient" style="stroke:#181818;stroke-width:1.0;stroke-dasharray:7.0,7.0;"/><polygon fill="#181818" points="729.84,489.78,726.9808,480.3553,726.5703,485.9973,720.9284,485.5868,729.84,489.78" style="stroke:#181818;stroke-width:1.0;"/><text fill="#000000" font-family="sans-serif" font-size="13" lengthAdjust="spacing" textLength="109" x="666" y="338.4951">creates &amp; exposes</text></g><!--link main to JsonProcessor--><g id="link_main_JsonProcessor"><path codeLine="129" d="M633.87,139.76 C613.82,198.74 576.38,317.66 562,422 C537.41,600.45 543.059,806.8281 548.819,917.8181 " fill="none" id="main-to-JsonProcessor" style="stroke:#181818;stroke-width:1.0;stroke-dasharray:7.0,7.0;"/><polygon fill="#181818" points="549.13,923.81,552.6582,914.6148,548.8709,918.8167,544.6689,915.0294,549.13,923.81" style="stroke:#181818;stroke-width:1.0;"/><text fill="#000000" font-family="sans-serif" font-size="13" lengthAdjust="spacing" textLength="109" x="563" y="436.4951">creates &amp; exposes</text></g><!--link main to JsonGenerator--><g id="link_main_JsonGenerator"><path codeLine="130" d="M730.84,139.5 C813.07,175.79 934.191,229.2471 1029.861,271.4771 " fill="none" id="main-to-JsonGenerator" style="stroke:#181818;stroke-width:1.0;stroke-dasharray:7.0,7.0;"/><polygon fill="#181818" points="1035.35,273.9,1028.7317,266.6063,1030.7758,271.8809,1025.5012,273.925,1035.35,273.9" style="stroke:#181818;stroke-width:1.0;"/><text fill="#000000" font-family="sans-serif" font-size="13" lengthAdjust="spacing" textLength="109" x="955" y="240.4951">creates &amp; exposes</text></g><!--link main to Date--><g id="link_main_Date"><path codeLine="131" d="M750.55,115.47 C947.09,140.77 1387.37,200.69 1754,274 C1767.03,276.61 1774.5714,278.1549 1788.0514,281.1349 " fill="none" id="main-to-Date" style="stroke:#181818;stroke-width:1.0;stroke-dasharray:7.0,7.0;"/><polygon fill="#181818" points="1793.91,282.43,1785.9856,276.5816,1789.0279,281.3507,1784.2587,284.393,1793.91,282.43" style="stroke:#181818;stroke-width:1.0;"/><text fill="#000000" font-family="sans-serif" font-size="13" lengthAdjust="spacing" textLength="109" x="1575" y="240.4951">creates &amp; exposes</text></g><!--link WebSocketClient to JsonProcessor--><g id="link_WebSocketClient_JsonProcessor"><path codeLine="133" d="M729.81,843.47 C697.9,871.88 671.0714,895.7703 643.9114,919.9503 " fill="none" id="WebSocketClient-to-JsonProcessor" style="stroke:#181818;stroke-width:1.0;stroke-dasharray:7.0,7.0;"/><polygon fill="#181818" points="639.43,923.94,648.8118,920.9431,643.1645,920.6153,643.4923,914.9679,639.43,923.94" style="stroke:#181818;stroke-width:1.0;"/><text fill="#000000" font-family="sans-serif" font-size="13" lengthAdjust="spacing" textLength="114" x="690" y="890.4951">sends messages to</text></g><!--link JsonProcessor to DatabaseManager--><g id="link_JsonProcessor_DatabaseManager"><path codeLine="134" d="M518.85,1078.26 C508.38,1100.99 498.6915,1122.0009 485.6615,1150.2709 " fill="none" id="JsonProcessor-to-DatabaseManager" style="stroke:#181818;stroke-width:1.0;stroke-dasharray:7.0,7.0;"/><polygon fill="#181818" points="483.15,1155.72,490.55,1149.2208,485.2429,1151.1791,483.2846,1145.8721,483.15,1155.72" style="stroke:#181818;stroke-width:1.0;"/><text fill="#000000" font-family="sans-serif" font-size="13" lengthAdjust="spacing" textLength="107" x="503" y="1122.4951">processes data for</text></g><!--link JsonGenerator to WebSocketClient--><g id="link_JsonGenerator_WebSocketClient"><path codeLine="135" d="M1125.61,392.12 C1109.64,414.55 1093.88,436.6823 1073.88,464.7723 " fill="none" id="JsonGenerator-to-WebSocketClient" style="stroke:#181818;stroke-width:1.0;stroke-dasharray:7.0,7.0;"/><polygon fill="#181818" points="1070.4,469.66,1078.8785,464.6485,1073.3,465.5869,1072.3616,460.0085,1070.4,469.66" style="stroke:#181818;stroke-width:1.0;"/><text fill="#000000" font-family="sans-serif" font-size="13" lengthAdjust="spacing" textLength="139" x="1101" y="436.4951">generates messages for</text></g><!--SRC=[jLXPSzis47xdhy1JOiTnskTCuXbLEUhKiQmenqEdeu58o4920Wm0Eb4pxc_lBW1284JISZhrZ6q9sEF3xc8FF2GBioqPqSmOBgvrfhzmKLD5AvANLEk9COgl6iFESoaM_6z6Ver8AYbalb6oOiIeXaKxUaCB-GqaaZKjDSkoX-HvpmzvGGq52Ah9JQEOxYNACcq9o7jPo7F3Al8Z8_1pGkR0YJgQXXV94e0tRsN1rvobMuQRaYLh1TEvuhNXKgGx3GEGBVrAofBaigfBPjYhabx7wtAzBhbWawBeMNt1aCLlj2SvEivk1sqpbOgHwSa9cQ8d1erZ_MGDkQAQlQM2NZD5dZrR07fGASNPcJVOAT666fxl4J_Y0dP4pZpPVF6rR6b8jIpyHmy-uJwQprQV6RZd4RYU2KEU4z6KPMtKiMVu9-LeDuRWN3DpxX6bj3UI5-Wje-HsZsQ-FB_yEFjZyjl5I-yfnS1tx-cgx2UQVwIAKs4kk3O4jBP-qSCYQoLpflKRBSKxfflI7C7D0EvMr5jQamUVm-wOLYG5fOkjoD44mpehghuWh8b6MbQqAds8Fi3u7sI6QyNCp0KXHcp_sLfPiH4czfHkOyU4QzxZ-yI1pFe9SS-4lnDZe1DgTrU66NwuOBY5KBL7v88RJaj8JsqeUHodqRa4Kn0B7q18s7GnKZAg9cKPkI28rKo54_RvcSFwOq-iP-7wmnMmQQyZhR27IgN5XqibEJFq2clgWjubR00ldhCZoqVqAxYq7wpOvAJsSbXMFSvt2GbBry1xJmbWiLcDte7issTbsMuEGNU6-cyoRB7O_gGCMjVbTi7K3LFJ3HNNJFTQG5kAyzWEymKppxpZpl12JHk5MHJZL8TmjFS311SbsqKPHoX1KKUErsI5zCXmIAtL3X8HOgbBaKTG1xK0qFzJ2RfYAWNO93S76FsshPUVs6eXyozWxv9ZqHgjbodnNhqC1EHHjVpMVeaZf5e2DW59qxSZkynKBL5Be_UMRGi3aGarCTd3yh8qSgaQ4UjOXvleqsg2- -vAFNJUk20VAkJWIcq9lNNUInSrUnbDbOEi1TUU-nMqefv_a5epKNYhfaegjtpSxVMyruwENNmcxQ7ptS1cvC4EnMaBnKo3-AwsuuHkuTGaW9toAAgn15-vV2PLQ9CxgtVxRwXL0NhD9gAusdL0AI0Cp5ro7EemN2NUrOrOqb3569U5RL6F59krjM-lGiQDLTWpxP20EmnU52y6HKwKebj8Gsx7Vaib1UEuWIEtDQ97b3TyAyjzJRptsfqeyLvOlQVt4ZD1Bkxpcg0LUmpTZY5RQ8NS9nZjpCPzBDeJZmjtHRXF_b1xcafm9NX8mgu-t0FsRJGViM1I_FApbZGllzTGRBYnGkvhDDm26PM4Rf2BWdr72PR3_ka2fZ26XLAKpcIhQ7tUCBM5nQ_uFvhIOEl0wGmf1oU8mVQwXvPzPtbZc4MKUj72EuZp4pURAtn8qBqoqjxMPGlxyg0F6VEi3ZUVwT4HV5AZh-rz9Y-50IDVINJXs2HUKIwWdOXOGqDnug8426pWK7MTmr4s54PU-7ppvrzZMDwnqahJ6ruFlGKy95DPrLBRrZ3RcwjFJtTlA4y11oxhRA_QdtOwcgUaqK3LngFTZMFHxuFk2TINd3kGcJN3aoTdUzFzKp-LQ_80V0vWMKISOXabxbQxEqbtgNMKr6QAFeezG_LXmFO2Oi0LVKsCpBeK_HRnCmWmu5iBMKkLTH7tswPDd952P0LNN4fOpGJy9OfVRmoHwrGjH6HeUQ5y6SCKTfDkLvF5_0BABudUVdwt3RTk7xH-aNPM9rXVOVSg7E7DOdP9mgoaCx08GIHPWYSvpm2UNI3cigeQuU-KHGgN27vrspRXBSMM2C4k30wZf0Rbc3Si9YC9Tin3U3gEmXDXITTmPK5nAwDpKEot_IIkEnjLr0VWpklW9pIM4pI68lYzmqkBeiMmMtIl2llh5i9sN9L_rxG1tnXUShE5CucyXJsb9R12TegSwSaXp2fgdup7f6F2G5_CBuZDs-IRWadPXbv87w6uj6vrnSnL0rm9yly5]--></g></svg>